<?xml version="1.0" encoding="utf-8"?>
<!-- Generator: Adobe Illustrator 27.5.0, SVG Export Plug-In . SVG Version: 6.00 Build 0)  -->
<svg version="1.1" xmlns="http://www.w3.org/2000/svg" xmlns:xlink="http://www.w3.org/1999/xlink" x="0px" y="0px"
	 viewBox="0 0 500 500" style="enable-background:new 0 0 500 500;" xml:space="preserve">
<g id="BACKGROUND">
	<rect style="fill:#FFFFFF;" width="500" height="500"/>
</g>
<g id="OBJECTS">
	<g>
		<defs>
			<path id="SVGID_1_" d="M370.946,417.625c40.654-19.734,84.744-43.059,101.173-85.158c7.443-19.071,7.307-43.006-6.991-57.658
				c-16.35-16.755-44.826-15.823-61.862-31.879c-18.455-17.394-16.33-46.801-12.788-71.913s5.72-54.499-12.68-71.95
				c-9.958-9.445-24.192-13.152-37.912-13.521c-29.553-0.795-59.144,13.109-77.396,36.366
				c-17.038,21.709-23.756,49.458-33.016,75.454c-3.619,10.16-8.152,20.764-17.082,26.812c-10.016,6.783-23.39,6.223-34.999,2.823
				c-26.945-7.891-49.866-29.355-77.924-30.401c-23.937-0.892-46.381,14.903-57.756,35.984
				C12.182,287.308,64.07,402.518,82.66,417.625H370.946z"/>
		</defs>
		<clipPath id="SVGID_00000030444514468157322500000006827033220647553175_">
			<use xlink:href="#SVGID_1_"  style="overflow:visible;"/>
		</clipPath>
		<g style="clip-path:url(#SVGID_00000030444514468157322500000006827033220647553175_);">
			<path style="fill:#C1DEFD;" d="M370.946,417.625c40.654-19.734,84.744-43.059,101.173-85.158
				c7.443-19.071,7.307-43.006-6.991-57.658c-16.35-16.755-44.826-15.823-61.862-31.879c-18.455-17.394-16.33-46.801-12.788-71.913
				s5.72-54.499-12.68-71.95c-9.958-9.445-24.192-13.152-37.912-13.521c-29.553-0.795-59.144,13.109-77.396,36.366
				c-17.038,21.709-23.756,49.458-33.016,75.454c-3.619,10.16-8.152,20.764-17.082,26.812c-10.016,6.783-23.39,6.223-34.999,2.823
				c-26.945-7.891-49.866-29.355-77.924-30.401c-23.937-0.892-46.381,14.903-57.756,35.984
				C12.182,287.308,64.07,402.518,82.66,417.625H370.946z"/>
		</g>
		<g style="clip-path:url(#SVGID_00000030444514468157322500000006827033220647553175_);">
			<g>
				<path style="fill:#FFFFFF;" d="M35.811,372.303c-14.768-28.955-12.863-65.445,4.569-92.849
					C44.9,272.349,50.496,265.142,58,261.015c6.834-3.759,16.066-4.359,22.365,0.886c5.534,4.608,6.065,13.533,0.674,18.549
					c-6.325,5.884-15.665,0-19.38-6.049c-3.625-5.903-4.262-13.409-2.557-20.038c1.893-7.364,6.955-13.292,13.291-17.332
					c13.72-8.748,31.354-8.774,46.811-5.715c31.556,6.245,58.752,25.483,90.185,32.157c17.154,3.642,34.369,2.243,50.969-3.303
					c16.497-5.512,32.63-13.996,46.173-24.945c13.181-10.657,23.901-24.634,28.3-41.202c2.093-7.883,2.766-16.358,1.235-24.408
					c-1.19-6.255-5.42-13.745-12.929-12.577c-3.615,0.562-5.81,3.778-7.407,6.794c-1.631,3.08-2.625,6.467-3.038,9.923
					c-0.901,7.534,0.857,15.291,4.31,21.998c7.728,15.012,23.321,23.915,37.566,31.759c7.856,4.326,15.801,8.598,22.983,14.005
					c7.06,5.315,13.08,11.781,17.592,19.397c4.26,7.19,7.16,15.175,8.504,23.424c1.327,8.143,1.474,17.218-1.298,25.087
					c-2.665,7.566-10.107,14.491-18.702,11.77c-7.957-2.519-7.895-11.641-3.544-17.35c5.503-7.221,14.94-6.942,22.594-3.498
					c7.351,3.308,13.704,8.879,19.145,14.745c20.114,21.687,28.616,53.523,22.691,82.425c-1.447,7.06-3.77,13.91-6.939,20.383
					c-0.229,0.467,0.471,0.879,0.701,0.41c13.223-27.015,11.241-60.033-3.183-86.174c-3.64-6.597-8.093-12.759-13.273-18.234
					c-5.501-5.814-11.934-11.352-19.352-14.527c-6.562-2.809-14.667-3.579-20.465,1.282c-4.312,3.616-7.366,10.138-5.024,15.662
					c2.601,6.133,10.129,7.344,15.797,5.126c7.185-2.811,10.582-10.379,11.786-17.54c2.745-16.336-1.935-33.922-11.317-47.419
					c-10.595-15.242-27.115-23.347-42.847-32.206c-15.489-8.721-31.974-20.03-36.201-38.457c-1.925-8.391-1.116-18.325,4.556-25.201
					c3.339-4.048,8.997-3.449,12.458,0.167c3.454,3.608,4.295,9.084,4.668,13.859c1.48,18.964-7.26,37.342-20.059,50.894
					c-12.89,13.648-29.849,23.551-47.104,30.641c-17.9,7.355-36.951,10.616-56.125,7.104c-33.278-6.095-61.69-27.087-94.99-33.092
					c-15.337-2.766-32.705-2.383-46.137,6.459c-5.907,3.888-10.73,9.438-12.82,16.267c-1.867,6.101-1.739,12.945,0.743,18.856
					c2.525,6.013,8.184,11.526,15.003,11.871c6.134,0.31,10.39-4.964,11.124-10.663c0.826-6.41-3.094-11.832-8.91-14.238
					c-7.091-2.933-14.971-1.26-21.196,2.882c-6.709,4.464-11.845,11.18-16.079,17.94c-4.385,7.002-7.782,14.62-10.155,22.531
					c-4.695,15.65-5.413,32.506-1.967,48.483c1.658,7.688,4.31,15.127,7.882,22.132C35.348,373.178,36.048,372.768,35.811,372.303
					L35.811,372.303z"/>
			</g>
		</g>
	</g>
	<path style="opacity:0.5;fill:#6D99BC;" d="M471.538,418.037H24.322c-0.865,0.771-1.321,1.554-1.321,2.347
		c0,11.949,100.704,21.635,224.929,21.635s224.929-9.686,224.929-21.635C472.859,419.591,472.402,418.808,471.538,418.037z"/>
	<g>
		<defs>
			<path id="SVGID_00000177473597798266815680000012358976240803357337_" d="M274.566,400.718
				c6.709,12.454,22.339,17.433,34.7,10.553c0.365-0.203,0.725-0.413,1.081-0.632c7.404-4.539,12.615-11.918,16.778-19.54
				c4.163-7.622,7.508-15.711,12.317-22.943c4.595-6.912,10.439-12.907,15.283-19.646c4.844-6.74,8.763-14.597,8.644-22.896
				c-0.074-5.164-1.984-10.599-6.215-13.56c-5.331-3.731-12.881-2.511-18.384,0.96c-5.503,3.471-9.529,8.783-13.853,13.645
				c-6.913,7.775-14.856,14.632-23.556,20.336c-7.709,5.054-16.078,9.262-22.785,15.585c-6.707,6.324-11.653,15.486-10.007,24.556
				C269.097,390.038,271.78,395.547,274.566,400.718z"/>
		</defs>
		<clipPath id="SVGID_00000116205776173072570000000009025210877221742220_">
			<use xlink:href="#SVGID_00000177473597798266815680000012358976240803357337_"  style="overflow:visible;"/>
		</clipPath>
		<g style="clip-path:url(#SVGID_00000116205776173072570000000009025210877221742220_);">
			<path style="fill:#514297;" d="M274.566,400.718c6.709,12.454,22.339,17.433,34.7,10.553c0.365-0.203,0.725-0.413,1.081-0.632
				c7.404-4.539,12.615-11.918,16.778-19.54c4.163-7.622,7.508-15.711,12.317-22.943c4.595-6.912,10.439-12.907,15.283-19.646
				c4.844-6.74,8.763-14.597,8.644-22.896c-0.074-5.164-1.984-10.599-6.215-13.56c-5.331-3.731-12.881-2.511-18.384,0.96
				c-5.503,3.471-9.529,8.783-13.853,13.645c-6.913,7.775-14.856,14.632-23.556,20.336c-7.709,5.054-16.078,9.262-22.785,15.585
				c-6.707,6.324-11.653,15.486-10.007,24.556C269.097,390.038,271.78,395.547,274.566,400.718z"/>
		</g>
		<g style="clip-path:url(#SVGID_00000116205776173072570000000009025210877221742220_);">
			<g>
				<path style="fill:#FFFFFF;" d="M360.154,307.218c-6.767,6.117-12.27,13.428-17.499,20.861
					c-5.334,7.582-10.579,15.196-16.382,22.434c-11.559,14.417-24.502,27.686-38.259,40.008
					c-7.765,6.955-15.795,13.609-24.008,20.028c-1.11,0.868,0.451,2.41,1.55,1.55c14.569-11.388,28.571-23.53,41.525-36.736
					c6.464-6.589,12.665-13.439,18.526-20.571c5.825-7.087,11.201-14.488,16.435-22.018c5.912-8.507,11.936-17.023,19.662-24.007
					C362.753,307.82,361.199,306.274,360.154,307.218L360.154,307.218z"/>
			</g>
		</g>
		<g style="clip-path:url(#SVGID_00000116205776173072570000000009025210877221742220_);">
			<g>
				<path style="fill:#FFFFFF;" d="M344.301,367.853c-11.168,4.756-23.566,6.363-35.577,4.612c-0.69-0.101-0.988,0.955-0.291,1.057
					c12.337,1.798,24.952,0.162,36.422-4.722C345.501,368.524,344.943,367.58,344.301,367.853L344.301,367.853z"/>
			</g>
		</g>
		<g style="clip-path:url(#SVGID_00000116205776173072570000000009025210877221742220_);">
			<g>
				<path style="fill:#FFFFFF;" d="M298.509,382.414c-1.662-16.986,1.549-34.274,9.243-49.512c0.317-0.628-0.628-1.184-0.946-0.553
					c-7.778,15.405-11.074,32.887-9.393,50.066C297.481,383.11,298.578,383.117,298.509,382.414L298.509,382.414z"/>
			</g>
		</g>
		<g style="clip-path:url(#SVGID_00000116205776173072570000000009025210877221742220_);">
			<g>
				<path style="fill:#FFFFFF;" d="M330.407,347.027c-2.498-14.973,3.473-29.499,10.959-42.147c0.36-0.608-0.587-1.16-0.946-0.553
					c-7.653,12.93-13.619,27.704-11.069,42.991C329.465,348.012,330.522,347.718,330.407,347.027L330.407,347.027z"/>
			</g>
		</g>
		<g style="clip-path:url(#SVGID_00000116205776173072570000000009025210877221742220_);">
			<g>
				<path style="fill:#FFFFFF;" d="M340.681,334.22c10.126,0.68,21.477,1.143,29.566-6.098c0.527-0.471-0.251-1.245-0.775-0.775
					c-7.842,7.02-19,6.434-28.791,5.776C339.977,333.076,339.98,334.173,340.681,334.22L340.681,334.22z"/>
			</g>
		</g>
	</g>
	<g>
		<g>
			<path style="fill:#0D548A;" d="M109.067,362.096c-2.939-9.874-7.965-19.121-14.65-26.958
				c-5.577-6.538-12.494-12.438-15.139-20.615c-1.099-3.398-1.165-7.638,1.52-9.993c1.87-1.641,4.645-1.903,7.056-1.29
				c2.411,0.613,4.55,1.981,6.642,3.328c-1.086-3.333-1.954-6.736-2.597-10.182c-0.676-3.622-1.103-7.353-0.474-10.984
				c0.628-3.631,2.425-7.183,5.454-9.281c3.029-2.098,7.377-2.443,10.363-0.285c2.894,2.091,3.945,5.859,4.651,9.359
				c2.24,11.101,2.939,22.511,2.072,33.802c0.695-3.92,1.657-7.874,3.741-11.265c2.084-3.392,5.459-6.181,9.405-6.71
				c1.034-0.139,2.114-0.117,3.084,0.268c1.915,0.759,3.033,2.756,3.694,4.707c1.154,3.409,1.373,7.066,1.269,10.663
				c-0.438,15.161-6.369,29.557-12.285,43.522l-7.148,23.739L109.067,362.096z"/>
		</g>
		<g>
			<defs>
				<path id="SVGID_00000140715285154287794650000008351287824293912721_" d="M130.411,400.718
					c-6.709,12.454-22.339,17.433-34.7,10.553c-0.365-0.203-0.725-0.413-1.081-0.632c-7.404-4.539-12.615-11.918-16.778-19.54
					c-4.163-7.622-7.508-15.711-12.317-22.943c-4.595-6.912-10.439-12.907-15.283-19.646c-4.844-6.74-8.763-14.597-8.644-22.896
					c0.074-5.164,1.984-10.599,6.215-13.56c5.331-3.731,12.881-2.511,18.384,0.96c5.503,3.471,9.529,8.783,13.853,13.645
					c6.913,7.775,14.856,14.632,23.556,20.336c7.709,5.054,16.078,9.262,22.785,15.585c6.707,6.324,11.653,15.486,10.007,24.556
					C135.88,390.038,133.196,395.547,130.411,400.718z"/>
			</defs>
			<clipPath id="SVGID_00000021084602958394925580000004869667285862145175_">
				<use xlink:href="#SVGID_00000140715285154287794650000008351287824293912721_"  style="overflow:visible;"/>
			</clipPath>
			<g style="clip-path:url(#SVGID_00000021084602958394925580000004869667285862145175_);">
				<path style="fill:#514297;" d="M130.411,400.718c-6.709,12.454-22.339,17.433-34.7,10.553c-0.365-0.203-0.725-0.413-1.081-0.632
					c-7.404-4.539-12.615-11.918-16.778-19.54c-4.163-7.622-7.508-15.711-12.317-22.943c-4.595-6.912-10.439-12.907-15.283-19.646
					c-4.844-6.74-8.763-14.597-8.644-22.896c0.074-5.164,1.984-10.599,6.215-13.56c5.331-3.731,12.881-2.511,18.384,0.96
					c5.503,3.471,9.529,8.783,13.853,13.645c6.913,7.775,14.856,14.632,23.556,20.336c7.709,5.054,16.078,9.262,22.785,15.585
					c6.707,6.324,11.653,15.486,10.007,24.556C135.88,390.038,133.196,395.547,130.411,400.718z"/>
			</g>
			<g style="clip-path:url(#SVGID_00000021084602958394925580000004869667285862145175_);">
				<g>
					<path style="fill:#FFFFFF;" d="M43.272,308.769c6.851,6.192,12.381,13.601,17.659,21.134
						c5.26,7.506,10.485,15.006,16.222,22.161c11.559,14.417,24.502,27.686,38.259,40.008c7.765,6.955,15.795,13.609,24.008,20.028
						c1.099,0.859,2.661-0.682,1.55-1.55c-14.569-11.388-28.571-23.53-41.525-36.736c-6.464-6.589-12.665-13.439-18.526-20.571
						c-5.893-7.17-11.294-14.678-16.592-22.293c-5.853-8.413-11.865-16.826-19.505-23.731
						C43.778,306.274,42.223,307.82,43.272,308.769L43.272,308.769z"/>
				</g>
			</g>
			<g style="clip-path:url(#SVGID_00000021084602958394925580000004869667285862145175_);">
				<g>
					<path style="fill:#FFFFFF;" d="M60.123,368.8c11.47,4.885,24.085,6.521,36.422,4.722c0.695-0.101,0.4-1.158-0.291-1.057
						c-12.012,1.751-24.409,0.144-35.577-4.612C60.034,367.58,59.475,368.524,60.123,368.8L60.123,368.8z"/>
				</g>
			</g>
			<g style="clip-path:url(#SVGID_00000021084602958394925580000004869667285862145175_);">
				<g>
					<path style="fill:#FFFFFF;" d="M107.564,382.414c1.681-17.178-1.615-34.661-9.393-50.066c-0.318-0.63-1.264-0.076-0.946,0.553
						c7.694,15.238,10.905,32.526,9.243,49.512C106.399,383.116,107.496,383.111,107.564,382.414L107.564,382.414z"/>
				</g>
			</g>
			<g style="clip-path:url(#SVGID_00000021084602958394925580000004869667285862145175_);">
				<g>
					<path style="fill:#FFFFFF;" d="M75.627,347.318c2.55-15.287-3.416-30.062-11.069-42.991c-0.359-0.607-1.307-0.056-0.946,0.553
						c7.486,12.647,13.457,27.174,10.959,42.147C74.455,347.717,75.511,348.013,75.627,347.318L75.627,347.318z"/>
				</g>
			</g>
			<g style="clip-path:url(#SVGID_00000021084602958394925580000004869667285862145175_);">
				<g>
					<path style="fill:#FFFFFF;" d="M64.296,333.124c-9.79,0.658-20.948,1.244-28.791-5.776c-0.524-0.469-1.302,0.303-0.775,0.775
						c8.089,7.241,19.44,6.778,29.566,6.098C64.996,334.173,65.001,333.076,64.296,333.124L64.296,333.124z"/>
				</g>
			</g>
		</g>
		<g>
			<path style="fill:#0D548A;" d="M274.052,375.77c5.721-8.567,13.25-15.921,21.95-21.438c7.258-4.602,15.607-8.2,20.545-15.233
				c2.053-2.923,3.366-6.954,1.495-9.997c-1.303-2.119-3.877-3.188-6.361-3.314c-2.485-0.125-4.932,0.551-7.328,1.221
				c2.02-2.864,3.854-5.86,5.484-8.963c1.714-3.261,3.222-6.701,3.693-10.355c0.47-3.654-0.199-7.578-2.474-10.476
				c-2.275-2.898-6.328-4.51-9.818-3.329c-3.382,1.144-5.498,4.435-7.204,7.571c-5.414,9.946-9.448,20.643-11.949,31.688
				c0.492-3.95,0.739-8.012-0.252-11.868c-0.991-3.855-3.393-7.516-7.007-9.186c-0.947-0.438-1.986-0.735-3.026-0.654
				c-2.054,0.161-3.711,1.738-4.918,3.408c-2.108,2.917-3.396,6.347-4.358,9.815c-4.053,14.615-2.632,30.12-1.098,45.21
				l-0.172,24.791L274.052,375.77z"/>
		</g>
		<g>
			<path style="fill:#0C1A1E;" d="M253.009,417.625H137.559c-13.529,0-24.497-10.968-24.497-24.497V113.85
				c0-13.529,10.968-24.497,24.497-24.497h115.449c13.529,0,24.497,10.968,24.497,24.497v279.278
				C277.505,406.657,266.538,417.625,253.009,417.625z"/>
			<path style="fill:#1A2E35;" d="M267.185,417.625H147.194c-12.275,0-22.226-9.951-22.226-22.226V111.579
				c0-12.275,9.951-22.226,22.226-22.226h119.992c12.275,0,22.226,9.951,22.226,22.226v283.821
				C289.411,407.674,279.46,417.625,267.185,417.625z"/>
			<path style="fill:#FFFFFF;" d="M260.399,397.99H154.695c-11.328,0-20.511-9.183-20.511-20.511V116.963
				c0-11.328,9.183-20.511,20.511-20.511h105.704c11.328,0,20.511,9.183,20.511,20.511v260.517
				C280.91,388.807,271.727,397.99,260.399,397.99z"/>
			<path style="fill:#E6E6E6;" d="M267.624,314.217H146.569c-4.234,0-7.667-3.432-7.667-7.667V150.691
				c0-4.234,3.432-7.667,7.667-7.667h121.056c4.234,0,7.667,3.432,7.667,7.667V306.55
				C275.291,310.784,271.859,314.217,267.624,314.217z"/>
			<path style="fill:#5660DA;" d="M270.674,336.715H146.319c-2.863,0-5.185-2.321-5.185-5.185v-4.766
				c0-2.863,2.321-5.185,5.185-5.185h124.355c2.863,0,5.185,2.321,5.185,5.185v4.766
				C275.858,334.394,273.537,336.715,270.674,336.715z"/>
			<path style="fill:#E6E6E6;" d="M270.674,380.076H146.319c-2.863,0-5.185-2.321-5.185-5.185v-25.628
				c0-2.863,2.321-5.185,5.185-5.185h124.355c2.863,0,5.185,2.321,5.185,5.185v25.628
				C275.858,377.755,273.537,380.076,270.674,380.076z"/>
			<path style="fill:#5660DA;" d="M275.291,169.61v-18.918c0-4.234-3.432-7.667-7.667-7.667H146.569
				c-4.234,0-7.667,3.432-7.667,7.667v18.918H275.291z"/>
			<g>
				<rect x="145.942" y="176.347" style="fill:#BFBFC1;" width="16.804" height="16.804"/>
				<rect x="172.318" y="176.347" style="fill:#BFBFC1;" width="16.804" height="16.804"/>
				<rect x="198.694" y="176.347" style="fill:#BFBFC1;" width="16.804" height="16.804"/>
				<rect x="225.071" y="176.347" style="fill:#BFBFC1;" width="16.804" height="16.804"/>
				<rect x="251.447" y="176.347" style="fill:#BFBFC1;" width="16.804" height="16.804"/>
				<rect x="145.942" y="201.757" style="fill:#BFBFC1;" width="16.804" height="16.804"/>
				<rect x="172.318" y="201.757" style="fill:#BFBFC1;" width="16.804" height="16.804"/>
				<rect x="198.694" y="201.757" style="fill:#BFBFC1;" width="16.804" height="16.804"/>
				<rect x="225.071" y="201.757" style="fill:#FE7966;" width="16.804" height="16.804"/>
				<rect x="251.447" y="201.757" style="fill:#BFBFC1;" width="16.804" height="16.804"/>
				<rect x="145.942" y="227.168" style="fill:#BFBFC1;" width="16.804" height="16.804"/>
				<rect x="172.318" y="227.168" style="fill:#BFBFC1;" width="16.804" height="16.804"/>
				<rect x="198.694" y="227.168" style="fill:#BFBFC1;" width="16.804" height="16.804"/>
				<rect x="225.071" y="227.168" style="fill:#BFBFC1;" width="16.804" height="16.804"/>
				<rect x="251.447" y="227.168" style="fill:#BFBFC1;" width="16.804" height="16.804"/>
				<rect x="145.942" y="252.578" style="fill:#BFBFC1;" width="16.804" height="16.804"/>
				<rect x="172.318" y="252.578" style="fill:#BFBFC1;" width="16.804" height="16.804"/>
				<rect x="198.694" y="252.578" style="fill:#BFBFC1;" width="16.804" height="16.804"/>
				<rect x="225.071" y="252.578" style="fill:#BFBFC1;" width="16.804" height="16.804"/>
				<rect x="251.447" y="252.578" style="fill:#BFBFC1;" width="16.804" height="16.804"/>
			</g>
			<g>
				<path style="fill:#BFBFC1;" d="M254.027,130.634c0,2.542,2.06,4.602,4.602,4.602s4.602-2.06,4.602-4.602
					s-2.06-4.602-4.602-4.602S254.027,128.092,254.027,130.634z"/>
				<path style="fill:#BFBFC1;" d="M237.273,130.634c0,2.542,2.06,4.602,4.602,4.602c2.542,0,4.602-2.06,4.602-4.602
					s-2.06-4.602-4.602-4.602C239.333,126.032,237.273,128.092,237.273,130.634z"/>
				<path style="fill:#BFBFC1;" d="M220.519,130.634c0,2.542,2.06,4.602,4.602,4.602s4.602-2.06,4.602-4.602
					s-2.06-4.602-4.602-4.602S220.519,128.092,220.519,130.634z"/>
			</g>
			<polygon style="fill:#FFFFFF;" points="150.759,152.636 150.759,162.044 144.173,157.34 			"/>
			<polygon style="fill:#FFFFFF;" points="261.665,152.636 261.665,162.044 268.251,157.34 			"/>
			<g style="opacity:0.5;">
				<path style="fill:#FFFFFF;" d="M280.909,223.492c-37.291,61.905-81.23,119.409-128.027,174.406
					c0.598,0.052,1.201,0.091,1.812,0.091h62.201c20.38-29.139,46.98-59.551,64.013-89.656V223.492z"/>
				<path style="fill:#FFFFFF;" d="M280.909,136.344v-19.381c0-11.327-9.183-20.511-20.511-20.511h-20.874
					c-32.1,52.994-69.082,101.496-105.341,152.944v82.52C185.325,279.799,279.433,138.879,280.909,136.344z"/>
			</g>
			<g>
				<path style="fill:#1A2E35;" d="M179.322,107.352h56.451c4.97,0,8.999-4.029,8.999-8.999l0,0c0-4.97-4.029-8.999-8.999-8.999
					h-56.451c-4.97,0-8.999,4.029-8.999,8.999l0,0C170.322,103.323,174.352,107.352,179.322,107.352z"/>
				<path style="fill:#0C1A1E;" d="M212.405,103.048h-25.771c-1.814,0-3.298-1.484-3.298-3.298l0,0c0-1.814,1.484-3.298,3.298-3.298
					h25.771c1.814,0,3.298,1.484,3.298,3.298l0,0C215.703,101.564,214.219,103.048,212.405,103.048z"/>
				<path style="fill:#0C1A1E;" d="M226.425,103.048h-2.608c-1.814,0-3.298-1.484-3.298-3.298l0,0c0-1.814,1.484-3.298,3.298-3.298
					h2.608c1.814,0,3.298,1.484,3.298,3.298l0,0C229.723,101.564,228.239,103.048,226.425,103.048z"/>
			</g>
			<path style="fill:#193B44;" d="M120.077,185.727L120.077,185.727l0-48.627h0c-4.998,0-9.05,4.052-9.05,9.051v30.526
				C111.027,181.675,115.079,185.727,120.077,185.727z"/>
			<path style="fill:#193B44;" d="M118.591,213.288L118.591,213.288c0.821,0,1.486-0.665,1.486-1.486v-18.959
				c0-0.821-0.665-1.486-1.486-1.486l0,0c-4.178,0-7.564,3.387-7.564,7.564v6.803C111.027,209.901,114.413,213.288,118.591,213.288z
				"/>
		</g>
		<path style="fill:#0C1A1E;" d="M416.118,417.625H56.143l0,0c0-4.928,3.995-8.923,8.923-8.923h342.129
			C412.123,408.702,416.118,412.697,416.118,417.625L416.118,417.625z"/>
		<g>
			<defs>
				<path id="SVGID_00000013876202851242287190000007397009842433147325_" d="M38.826,377.684c0,0,32.49,1.246,32.652,22.547
					C71.478,400.23,51.704,406.141,38.826,377.684z"/>
			</defs>
			<clipPath id="SVGID_00000179645661997152822370000015787985842939941544_">
				<use xlink:href="#SVGID_00000013876202851242287190000007397009842433147325_"  style="overflow:visible;"/>
			</clipPath>
			<path style="clip-path:url(#SVGID_00000179645661997152822370000015787985842939941544_);fill:#5660DA;" d="M38.826,377.684
				c0,0,32.49,1.246,32.652,22.547C71.478,400.23,51.704,406.141,38.826,377.684z"/>
			<g style="clip-path:url(#SVGID_00000179645661997152822370000015787985842939941544_);">
				<g>
					<path style="fill:#FFFFFF;" d="M37.94,377.572c10.129,6.322,20.228,12.804,29.762,19.999c2.607,1.967,5.214,3.99,7.528,6.302
						c0.37,0.37,0.944-0.204,0.574-0.574c-4.477-4.473-9.862-8.125-15.036-11.729c-5.664-3.945-11.437-7.734-17.258-11.444
						c-1.715-1.093-3.435-2.179-5.161-3.255C37.905,376.594,37.497,377.296,37.94,377.572L37.94,377.572z"/>
				</g>
			</g>
		</g>
	</g>
	<polygon style="fill:#C1DEFD;" points="31.607,60.808 49.09,80.472 23.718,71.037 	"/>
	<polygon style="fill:#C1DEFD;" points="52.029,54.719 53.934,70.824 44.434,57.109 	"/>
	<polygon style="fill:#C1DEFD;" points="28.375,85.407 44.434,87.657 28.756,93.359 	"/>
	<path style="fill:#C1DEFD;" d="M90.603,179.946c0,2.653,2.15,4.803,4.803,4.803c2.653,0,4.803-2.15,4.803-4.803
		s-2.15-4.803-4.803-4.803C92.753,175.143,90.603,177.293,90.603,179.946z"/>
	<circle style="fill:#C1DEFD;" cx="263.231" cy="67.364" r="12.226"/>
	<g>
		<g>
			<path style="fill:#5660DA;" d="M450.246,135.236H309.928c-6.215,0-11.254-5.038-11.254-11.254V66.235
				c0-6.215,5.038-11.254,11.254-11.254h140.317c6.215,0,11.254,5.039,11.254,11.254v57.747
				C461.5,130.197,456.461,135.236,450.246,135.236z"/>
			<path style="fill:#E6E6E6;" d="M365.117,75.032h-52.024c-2.117,0-3.834-1.716-3.834-3.834l0,0c0-2.117,1.716-3.834,3.834-3.834
				h52.024c2.117,0,3.834,1.717,3.834,3.834l0,0C368.951,73.315,367.235,75.032,365.117,75.032z"/>
			<path style="fill:#E6E6E6;" d="M349.545,86.54h-36.451c-2.117,0-3.834-1.716-3.834-3.834l0,0c0-2.117,1.716-3.834,3.834-3.834
				h36.451c2.117,0,3.834,1.716,3.834,3.834l0,0C353.379,84.823,351.662,86.54,349.545,86.54z"/>
		</g>
		<g>
			<circle style="fill:#0D548A;" cx="78.565" cy="99.277" r="31.352"/>
			<circle style="fill:#FFFFFF;" cx="78.565" cy="99.277" r="25.238"/>
			<g>
				<path style="fill:#0D548A;" d="M78.565,104.903L78.565,104.903c-0.535,0-0.969-0.434-0.969-0.969V80.788
					c0-0.535,0.434-0.969,0.969-0.969l0,0c0.535,0,0.969,0.434,0.969,0.969v23.146C79.534,104.469,79.1,104.903,78.565,104.903z"/>
				<g>
					<path style="fill:#0D548A;" d="M77.866,104.162v-0.455c0-0.409,0.332-0.741,0.741-0.741h13.2c0.409,0,0.741,0.332,0.741,0.741
						v0.455c0,0.409-0.332,0.741-0.741,0.741h-13.2C78.198,104.903,77.866,104.571,77.866,104.162z"/>
				</g>
			</g>
		</g>
		<g>
			<path style="fill:#C9600A;" d="M344.924,180.918c0,0,11.578,3.55,16.589,0.379c5.011-3.17,0.869-8.59-1.278-8.488
				C358.087,172.912,345.925,175.119,344.924,180.918z"/>
			<path style="fill:#FD9697;" d="M348.343,178.295l-7.467,23.342l5.223,13.524c0,0,4.546,3.327,11.835-17.013
				c4.01-11.188,8.176-24.787,8.176-24.787L348.343,178.295z"/>
			<path style="fill:#DD5152;" d="M361.508,187.735c0.132-0.399,0.029-0.169,0.398-1.2c2.388-7.247,4.204-13.175,4.204-13.175
				l-17.767,4.934l-2.377,7.433C351.025,184.456,356.538,184.928,361.508,187.735z"/>
			<path style="fill:#FD9697;" d="M347.926,202.704c-0.361-0.177-17.582-15.652-27.717-22.718l-2.601,5.301
				c0,0,17.066,37.344,30.521,29.76L347.926,202.704z"/>
			<path style="fill:#FD9697;" d="M322.397,181.555c0,0-2.743-3.036-5.662-4.278c-2.919-1.241-1.232-5.436-2.905-5.059
				c-1.672,0.376-3.152,2.194-2.293,5.843c0.859,3.65-0.146,6.159-5.673,4.894c-5.527-1.265-7.522-3.241-8.746-1.039
				c-1.224,2.201,2.432,5.842,12.962,4.995c0,0-5.781,1.451-10.836-0.597c0,0-2.539-1.326-3.083,0.882
				c-0.544,2.208,4.77,6.122,13.837,3.176c0,0-0.993,0.71-2.812,1.251c-2.232,0.663-4.609,0.616-6.852-0.008
				c-1.418-0.394-3.215-0.736-3.671-0.108c-0.782,1.078,4.465,5.928,15.271,3.311c10.806-2.617,10.358-8.828,10.358-8.828
				L322.397,181.555z"/>
			<path style="fill:#000A28;" d="M398.705,74.008c0,0,0.192-8.662,10.225-6.205c11.754,2.878,20.01,21.808,3.165,22.145
				C395.25,90.285,398.705,74.008,398.705,74.008z"/>
			<path style="fill:#010C39;" d="M389.599,68.392c0,0,16.147-0.586,22.396,14.066c6.249,14.652,21.206,19.635,18.445,32.623
				c-2.761,12.988-12.476,14.522-12.476,14.522h-4.924l0.556-5.395c0,0-1.461,5.337-5.04,5.826
				c-3.579,0.489-32.32-0.534-32.32-0.534l0.822-2.966c0,0-1.997,3.521-8.106,3.499c-6.109-0.022-16.438-12.983-12.142-22.303
				s13.188-12.922,14.522-20.982C372.664,78.688,377.085,69.051,389.599,68.392z"/>
			<g>
				<path style="fill:#010C39;" d="M411.757,395.635l1.037,20.748c0,0-15.993,3.947-22.84,9.97
					c-1.755,1.544-0.716,4.514,1.587,4.542c11.308,0.138,39.785,0.249,40.216-2.118c0.538-2.954-1.179-29.111-1.179-29.111
					L411.757,395.635z"/>
				<path style="fill:#020921;" d="M412.533,411.168l-0.776-15.533l18.821,4.031c0,0,0.211,3.213,0.461,7.51
					C425.39,412.174,418.648,413.684,412.533,411.168z"/>
				<path style="fill:#FFFFFF;" d="M431.859,426.248c0.003,1.212-0.026,2.11-0.103,2.529c-0.431,2.367-28.908,2.256-40.216,2.118
					c-1.504-0.018-2.462-1.292-2.462-2.603C396.181,429.567,418.702,431.119,431.859,426.248z"/>
				<path style="fill:#FFFFFF;" d="M414.217,419.741c-0.284,0.892-1.524-0.149-3.368-0.778c-1.844-0.629-3.593-0.608-3.309-1.5
					c0.284-0.892,2.009-1.105,3.853-0.476C413.237,417.616,414.501,418.849,414.217,419.741z"/>
				<path style="fill:#FFFFFF;" d="M409.342,421.176c-0.284,0.892-1.524-0.149-3.368-0.778c-1.844-0.629-3.593-0.608-3.309-1.5
					c0.284-0.892,2.009-1.105,3.853-0.476C408.362,419.05,409.626,420.284,409.342,421.176z"/>
				<path style="fill:#FFFFFF;" d="M404.449,423.325c-0.284,0.892-1.524-0.149-3.368-0.778c-1.844-0.629-3.593-0.608-3.309-1.5
					c0.284-0.892,2.009-1.105,3.853-0.476C403.469,421.2,404.734,422.433,404.449,423.325z"/>
			</g>
			<g>
				<path style="fill:#010C39;" d="M363.491,395.635l1.037,20.748c0,0-15.993,3.947-22.84,9.97
					c-1.755,1.544-0.716,4.514,1.587,4.542c11.308,0.138,39.785,0.249,40.216-2.118c0.538-2.954-1.179-29.111-1.179-29.111
					L363.491,395.635z"/>
				<path style="fill:#020921;" d="M364.267,411.168l-0.776-15.533l18.821,4.031c0,0,0.211,3.213,0.461,7.51
					C377.125,412.174,370.382,413.684,364.267,411.168z"/>
				<path style="fill:#FFFFFF;" d="M383.594,426.248c0.003,1.212-0.026,2.11-0.103,2.529c-0.431,2.367-28.908,2.256-40.216,2.118
					c-1.504-0.018-2.462-1.292-2.462-2.603C347.915,429.567,370.437,431.119,383.594,426.248z"/>
				<path style="fill:#FFFFFF;" d="M365.951,419.741c-0.284,0.892-1.524-0.149-3.368-0.778c-1.844-0.629-3.593-0.608-3.309-1.5
					c0.284-0.892,2.009-1.105,3.853-0.476C364.972,417.616,366.236,418.849,365.951,419.741z"/>
				<path style="fill:#FFFFFF;" d="M361.076,421.176c-0.284,0.892-1.524-0.149-3.368-0.778c-1.844-0.629-3.593-0.608-3.309-1.5
					c0.284-0.892,2.009-1.105,3.853-0.476C360.096,419.05,361.36,420.284,361.076,421.176z"/>
				<path style="fill:#FFFFFF;" d="M356.184,423.325c-0.284,0.892-1.524-0.149-3.368-0.778c-1.844-0.629-3.593-0.608-3.309-1.5
					c0.284-0.892,2.009-1.105,3.853-0.476C355.204,421.2,356.468,422.433,356.184,423.325z"/>
			</g>
			<g>
				<defs>
					<path id="SVGID_00000072980267889652313360000013336227112230907811_" d="M424.669,221.592l-38.583-0.835v0.683l-27.444-0.683
						c-14.583,67.357,5.128,179.574,5.128,179.574h19.269c-2.141-82.719,4.818-141.929,4.818-141.929l0.875-0.018l3.403-0.069
						c0,0,3.084,39.67,18.748,142.016l20.976-0.185C431.86,400.146,444.058,241.744,424.669,221.592z"/>
				</defs>
				<clipPath id="SVGID_00000059282089565210336970000015905566075191405977_">
					<use xlink:href="#SVGID_00000072980267889652313360000013336227112230907811_"  style="overflow:visible;"/>
				</clipPath>
				<path style="clip-path:url(#SVGID_00000059282089565210336970000015905566075191405977_);fill:#404156;" d="M424.669,221.592
					l-38.583-0.835v0.683l-27.444-0.683c-14.583,67.357,5.128,179.574,5.128,179.574h19.269
					c-2.141-82.719,4.818-141.929,4.818-141.929l0.875-0.018l3.403-0.069c0,0,3.084,39.67,18.748,142.016l20.976-0.185
					C431.86,400.146,444.058,241.744,424.669,221.592z"/>
				
					<path style="clip-path:url(#SVGID_00000059282089565210336970000015905566075191405977_);fill:none;stroke:#8A8B96;stroke-width:1.0823;stroke-miterlimit:10;" d="
					M421.474,220.756c0,0,5.496,145.32,3.6,180.992"/>
				
					<path style="clip-path:url(#SVGID_00000059282089565210336970000015905566075191405977_);fill:none;stroke:#8A8B96;stroke-width:1.0823;stroke-miterlimit:10;" d="
					M365.991,219.698c0,0-6.668,103.309,0,152.13c6.668,48.821,6.668,48.821,6.668,48.821"/>
			</g>
			<path style="fill:#2B2C3F;" d="M416.54,229.584c3.005-2.505,5.778-5.009,8.534-7.514c-0.135-0.158-0.267-0.334-0.405-0.478
				l-38.583-0.835v0.683l-27.444-0.683c-0.232,1.072-0.455,2.156-0.67,3.251C373.283,238.45,399.58,243.364,416.54,229.584z"/>
			<path style="fill:#FD9697;" d="M407.669,99.835c-2.372,3.752-2.707,9.8,0.368,11.744c3.074,1.943,8.394-0.954,10.766-4.706
				c2.372-3.752,1.802-8.369-1.272-10.313C414.456,94.617,410.041,96.083,407.669,99.835z"/>
			<path style="fill:#FD9697;" d="M377.693,100.752c2.632,3.575,3.395,9.584,0.466,11.74s-8.441-0.356-11.073-3.931
				c-2.632-3.575-2.391-8.22,0.538-10.377C370.553,96.028,375.061,97.177,377.693,100.752z"/>
			<path style="fill:#FD9697;" d="M416.75,143.047c-18.388-5.731-13.373-24.716-13.373-24.716l-8.478-1.034v-0.16l-0.657,0.08
				l-0.657-0.08v0.16l-8.478,1.034c0,0,5.015,18.985-13.373,24.716c-18.388,5.731-22.567,11.462-24,34.149h93.014
				C439.317,154.509,435.138,148.778,416.75,143.047z"/>
			<path style="fill:#FFFFFF;" d="M416.75,143.047c-0.94-0.293-1.804-0.629-2.626-0.987c-12.785,7.549-30.156,8.435-42.747,1.101
				c-18.078,5.694-22.218,11.499-23.642,34.034h93.014C439.317,154.509,435.138,148.778,416.75,143.047z"/>
			<path style="fill:#D8D8D8;" d="M418.903,143.744c-14.883,12.718-36.898,16.326-51.758,0.856
				c-14.51,5.342-18.105,11.941-19.41,32.596h93.014C439.375,155.426,435.463,149.27,418.903,143.744z"/>
			<path style="fill:#FE7966;" d="M440.75,177.195c-1.433-22.686-5.612-28.417-24-34.149c-1.434-0.447-2.726-0.975-3.888-1.568
				c-5.694,7.679-15.565,19.089-21.744,18.862c-3.505,0.389-15.309-13.521-18.082-17.739c-0.421,0.155-0.851,0.305-1.299,0.445
				c-18.388,5.731-25.379,15.185-26.812,37.871c0,0,2.117-1.719,7.065-3.021c4.125-1.086,8.668-0.302,8.668-0.302l-3.362,44.919
				c0,0,13.118,6.829,33.536,6.755c25.89-0.094,35.562-6.755,35.562-6.755l-2.292-44.811L440.75,177.195z"/>
			<g>
				<path style="fill:#DD5152;" d="M402.779,122.832c0.118-2.682,0.598-4.501,0.598-4.501l-8.478-1.034v-0.16l-0.657,0.08
					l-0.657-0.08v0.16l-8.478,1.034c0,0,0.819,3.101,0.581,7.175C387.55,129.303,394.243,134.569,402.779,122.832z"/>
			</g>
			<path style="fill:#FD9697;" d="M373.378,83.256c-0.129,0.379-4.209,26.238,5.284,35.82s25.91,3.91,29.91-5.91
				c3.452-8.476,4.119-24.447-2.597-34.209C399.258,69.197,380.004,63.824,373.378,83.256z"/>
			<path style="opacity:0.3;fill:#DD5152;" d="M387.318,89.966c7.527-0.752,15.576,0.585,22.693-1.441
				c-0.821-3.481-2.119-6.78-4.037-9.567c-6.716-9.761-25.97-15.134-32.597,4.299c-0.044,0.128-0.541,3.189-0.81,7.548
				c3.969-0.551,11.501-1.341,11.501-1.341s1.414-1.992,2.167-2.744C386.638,87.68,386.811,88.274,387.318,89.966z"/>
			<path style="opacity:0.3;fill:#DD5152;" d="M373.716,109.05c0.941,3.95,2.481,7.539,4.946,10.026
				c9.492,9.582,25.91,3.91,29.91-5.91c0.934-2.294,1.661-5.138,2.093-8.258C410.242,119.299,383.415,132.568,373.716,109.05z"/>
			<g>
				<g>
					<path style="fill:#DD5152;" d="M385.237,90.294c0.387,4.271,0.773,8.541,1.16,12.812c0.056,0.619,0.112,1.238,0.168,1.857
						c0.009,0.098,0.067,0.207,0.174,0.228c0.932,0.182,1.865,0.364,2.797,0.546c0.297,0.058,0.425-0.398,0.126-0.456
						c-0.932-0.182-1.865-0.364-2.797-0.546c0.058,0.076,0.116,0.152,0.174,0.228c-0.387-4.271-0.773-8.541-1.16-12.812
						c-0.056-0.619-0.112-1.238-0.168-1.857C385.683,89.993,385.21,89.991,385.237,90.294L385.237,90.294z"/>
				</g>
			</g>
			<g>
				<g>
					<path style="fill:#DD5152;" d="M415.1,101.178c-0.613,0.037-1.247,0.24-1.778,0.542c-0.469,0.266-0.878,0.643-1.15,1.111
						c-0.34,0.583-0.452,1.278-0.404,1.946c0.041,0.578,0.212,1.203,0.675,1.589c0.367,0.306,0.834,0.408,1.3,0.33
						c0.464-0.077,0.905-0.342,1.207-0.699c0.339-0.4,0.592-0.972,0.437-1.501c-0.177-0.604-0.804-0.892-1.389-0.931
						c-0.662-0.044-1.356,0.226-1.774,0.749c-0.188,0.236,0.145,0.573,0.335,0.335c0.31-0.388,0.774-0.604,1.27-0.614
						c0.381-0.007,0.855,0.106,1.052,0.468c0.194,0.358,0.002,0.813-0.225,1.109c-0.227,0.298-0.559,0.518-0.923,0.604
						c-0.325,0.077-0.682,0.032-0.957-0.185c-0.364-0.288-0.499-0.787-0.534-1.23c-0.084-1.065,0.301-2.057,1.232-2.623
						c0.349-0.212,0.732-0.355,1.129-0.446c0.072-0.017,0.145-0.032,0.218-0.045c0.032-0.006,0.064-0.011,0.097-0.016
						c0.02-0.003,0.106-0.014,0.026-0.004c0.052-0.007,0.103-0.013,0.155-0.016C415.403,101.633,415.405,101.16,415.1,101.178
						L415.1,101.178z"/>
				</g>
			</g>
			<g>
				<g>
					<path style="fill:#DD5152;" d="M369.046,102.894c0.039,0.002,0.078,0.007,0.117,0.012c0.068,0.007-0.008-0.002,0.017,0.002
						c0.024,0.004,0.048,0.007,0.072,0.011c0.064,0.01,0.128,0.022,0.191,0.035c0.334,0.07,0.664,0.174,0.97,0.326
						c0.893,0.445,1.448,1.254,1.497,2.259c0.041,0.848-0.23,1.992-1.254,1.954c-0.349-0.013-0.707-0.18-0.971-0.426
						c-0.286-0.267-0.551-0.695-0.493-1.103c0.064-0.449,0.553-0.657,0.956-0.683c0.553-0.036,1.091,0.174,1.439,0.61
						c0.19,0.238,0.523-0.099,0.335-0.335c-0.668-0.836-2.299-1.116-2.997-0.155c-0.668,0.921,0.282,2.127,1.16,2.452
						c0.435,0.161,0.932,0.153,1.347-0.061c0.473-0.244,0.754-0.74,0.87-1.243c0.291-1.265-0.107-2.613-1.167-3.387
						c-0.588-0.429-1.36-0.698-2.089-0.742C368.742,102.402,368.743,102.875,369.046,102.894L369.046,102.894z"/>
				</g>
			</g>
			<g>
				<path style="fill:#DD5152;" d="M375.002,107.345c-0.03,1.558,1.509,2.85,3.438,2.887s3.516-1.196,3.546-2.753
					c0.03-1.558-1.509-2.85-3.438-2.887S375.032,105.787,375.002,107.345z"/>
			</g>
			<g>
				<path style="fill:#DD5152;" d="M397.245,107.345c-0.03,1.558,1.509,2.85,3.438,2.887s3.516-1.196,3.546-2.753
					c0.03-1.558-1.509-2.85-3.438-2.887C398.862,104.554,397.274,105.787,397.245,107.345z"/>
			</g>
			<path style="fill:#010C39;" d="M401.842,94.273c-0.153,0.802-1.669,0.402-3.563,0.04c-1.895-0.362-3.451-0.55-3.298-1.351
				c0.153-0.802,1.813-1.158,3.708-0.796S401.995,93.471,401.842,94.273z"/>
			<path style="fill:#010C39;" d="M383.384,92.798c0.272,0.77-1.239,1.188-3.058,1.83c-1.819,0.642-3.257,1.264-3.529,0.495
				c-0.272-0.77,0.983-1.914,2.801-2.556C381.417,91.925,383.112,92.028,383.384,92.798z"/>
			<path style="fill:#EE4A51;" d="M367.428,86.748"/>
			<path style="fill:#C9600A;" d="M423.598,181.105c0,0,12.703,2.035,21.292-9.215C444.89,171.89,431.963,170.503,423.598,181.105z"
				/>
			<path style="fill:#FD9697;" d="M425.119,175.916l3.578,24.244l10.646,9.841c0,0,5.547,0.984,3.131-20.487
				c-1.329-11.811-3.578-25.855-3.578-25.855L425.119,175.916z"/>
			<path style="fill:#DD5152;" d="M441.096,178.592c-0.057-0.417-0.048-0.164-0.171-1.253c-1.049-7.558-2.029-13.68-2.029-13.68
				l-13.777,12.256l1.14,7.72C430.24,180.266,435.397,178.26,441.096,178.592z"/>
			<path style="fill:#FE7966;" d="M419.84,160.349l3.757,20.755c0,0,10.825-6.71,21.292-9.215c0,0-8.052-29.701-25.049-27.823
				V160.349z"/>
			<path style="fill:#010C39;" d="M381.828,101.854c-0.031-1.087,0.56-1.985,1.32-2.007c0.76-0.021,1.401,0.842,1.431,1.929
				c0.031,1.087-0.561,1.985-1.321,2.007C382.499,103.804,381.858,102.94,381.828,101.854z"/>
			<path style="fill:#010C39;" d="M395.461,101.454c-0.03-1.087,0.561-1.985,1.32-2.007c0.76-0.021,1.401,0.842,1.431,1.929
				c0.031,1.087-0.561,1.985-1.32,2.007C396.133,103.404,395.492,102.54,395.461,101.454z"/>
			<g>
				<g>
					<path style="fill:#DD5152;" d="M396.192,108.538c-1.983,3.769-7.843,4.718-10.674,1.434c-0.342-0.396-0.706-0.931-0.876-1.382
						c-0.098-0.259-0.518-0.147-0.419,0.116c0.555,1.475,1.904,2.673,3.34,3.245c2.616,1.044,5.733,0.331,7.741-1.597
						c0.481-0.462,0.95-1.002,1.263-1.596C396.697,108.51,396.322,108.29,396.192,108.538L396.192,108.538z"/>
				</g>
			</g>
			<path style="fill:#010C39;" d="M372.177,83.618c0.164,1.65,0.679,3.448,1.759,5.308l10.496-1.381c0,0-0.268-4.909,1.803-7.67
				c0,0-0.23,6.673,2.608,7.517l15.263-0.644l3.03-8.828c0,0-4.869-8.705-15.377-9.472c-5.975-0.436-10.785,1.756-13.822,3.729
				C374.087,74.676,371.723,79.052,372.177,83.618z"/>
			<path style="fill:#010C39;" d="M373.936,83.25c0,0-0.97,12.664,0.667,16.827c1.636,4.163-0.307,4.546-1.636,1.338
				c-1.329-3.208-2.521-17.576-0.57-21.974l1.54,3.528"/>
			<path style="fill:#010C39;" d="M404.873,79.799c0,0,5.337,6.012,4.468,18.103c0,0-0.213,0.911,0.168,1.375
				c0.257,0.314,0.909,0.697,1.611-0.594c0.124-0.228,0.257-0.488,0.401-0.781c2.148-4.399,1.614-8.797,0.474-11.507
				c-1.139-2.71-5.843-9.204-5.843-9.204L404.873,79.799z"/>
			<circle style="fill:none;stroke:#FFFFFF;stroke-width:0.5412;stroke-miterlimit:10;" cx="378.546" cy="102.63" r="6.928"/>
			<path style="fill:none;stroke:#FFFFFF;stroke-width:0.5412;stroke-miterlimit:10;" d="M391.759,101.415
				c0,3.826,3.102,6.928,6.928,6.928c3.826,0,6.928-3.102,6.928-6.928s-3.102-6.928-6.928-6.928
				C394.861,94.487,391.759,97.589,391.759,101.415z"/>
			<path style="fill:none;stroke:#FFFFFF;stroke-width:0.5412;stroke-miterlimit:10;" d="M385.402,101.641
				c0,0,1.41-3.357,6.357-0.558"/>
			<g>
				<defs>
					<path id="SVGID_00000021088948913594455540000008144054093741447343_" d="M440.75,177.195
						c-1.433-22.686-5.612-28.417-24-34.149c-1.434-0.447-2.726-0.975-3.888-1.568c-5.694,7.679-15.565,19.089-21.744,18.862
						c-3.505,0.389-15.309-13.521-18.082-17.739c-0.421,0.155-0.851,0.305-1.299,0.445c-18.388,5.731-22.567,11.462-24,34.149
						l12.922,0.399l-3.362,44.919c0,0,13.118,6.829,33.536,6.755c25.89-0.094,35.562-6.755,35.562-6.755l-2.292-44.811
						L440.75,177.195z"/>
				</defs>
				<clipPath id="SVGID_00000087383274869623094290000001457852882352444052_">
					<use xlink:href="#SVGID_00000021088948913594455540000008144054093741447343_"  style="overflow:visible;"/>
				</clipPath>
				<g style="clip-path:url(#SVGID_00000087383274869623094290000001457852882352444052_);">
					
						<ellipse transform="matrix(0.222 -0.975 0.975 0.222 131.8221 473.4416)" style="fill:#FFAD69;" cx="362.592" cy="154.115" rx="12.636" ry="12.636"/>
					<circle style="fill:#FFAD69;" cx="384.817" cy="169.767" r="4.781"/>
					<circle style="fill:#FFAD69;" cx="372.204" cy="201.41" r="9.612"/>
					<circle style="fill:#FFAD69;" cx="406.095" cy="180.972" r="3.777"/>
					
						<ellipse transform="matrix(0.2306 -0.973 0.973 0.2306 166.0501 532.4041)" style="fill:#FFAD69;" cx="419.687" cy="161.202" rx="8.566" ry="8.566"/>
					<circle style="fill:#FFAD69;" cx="413.595" cy="218.561" r="8.185"/>
					<circle style="fill:#FFAD69;" cx="384.849" cy="227.481" r="8.089"/>
				</g>
			</g>
			<path style="fill:#FD9697;" d="M435.496,198.013c-0.403,0-22.679-6.307-34.89-8.186v5.904c0,0,31.771,26.008,40.51,13.272
				L435.496,198.013z"/>
			<g>
				<path style="fill:#294249;" d="M394.285,205.474l-10.76,1.992c-1.138,0.211-2.232-0.541-2.443-1.68l-4.751-25.667
					c-0.211-1.138,0.541-2.232,1.68-2.443l10.76-1.992c1.138-0.211,2.232,0.541,2.443,1.68l4.751,25.667
					C396.176,204.17,395.424,205.264,394.285,205.474z"/>
				<path style="fill:#1A2E35;" d="M393.079,205.698l-10.76,1.992c-1.139,0.211-2.232-0.541-2.443-1.68l-4.751-25.667
					c-0.211-1.139,0.541-2.232,1.68-2.443l10.76-1.992c1.138-0.211,2.232,0.541,2.443,1.68l4.751,25.667
					C394.969,204.393,394.217,205.487,393.079,205.698z"/>
			</g>
			<path style="fill:#FD9697;" d="M403.892,190.873c0,0-2.814-2.971-5.762-4.142c-2.948-1.172-1.361-5.405-3.024-4.989
				c-1.663,0.416-3.099,2.268-2.154,5.896c0.945,3.628,0,6.161-5.556,5.027c-5.556-1.134-7.597-3.061-8.768-0.832
				c-1.172,2.23,2.57,5.783,13.077,4.687c0,0-5.745,1.587-10.847-0.34c0,0-2.57-1.265-3.061,0.955
				c-0.491,2.22,4.913,6.007,13.908,2.848c0,0-0.976,0.734-2.782,1.317c-2.215,0.716-4.593,0.725-6.85,0.155
				c-1.427-0.36-3.231-0.66-3.672-0.021c-0.756,1.096,4.604,5.82,15.345,2.948c10.741-2.872,10.146-9.071,10.146-9.071V190.873z"/>
			<rect x="387.529" y="233.504" style="fill:#2B2C3F;" width="4.684" height="21.322"/>
			
				<rect x="360.592" y="397.99" transform="matrix(0.9993 -0.0368 0.0368 0.9993 -14.4664 13.972)" style="fill:#2B2C3F;" width="24.032" height="4.559"/>
			<rect x="409.085" y="397.99" style="fill:#2B2C3F;" width="24.032" height="4.559"/>
		</g>
	</g>
</g>
</svg>
